<?xml version="1.0" standalone="no"?>
<!DOCTYPE svg PUBLIC "-//W3C//DTD SVG 20010904//EN"
 "http://www.w3.org/TR/2001/REC-SVG-20010904/DTD/svg10.dtd">
<svg version="1.0" xmlns="http://www.w3.org/2000/svg"
 width="70.000000pt" height="70.000000pt" viewBox="0 0 70.000000 70.000000"
 preserveAspectRatio="xMidYMid meet">
<metadata>
Created by potrace 1.14, written by Peter Selinger 2001-2017
</metadata>
<g transform="translate(0.000000,70.000000) scale(0.100000,-0.100000)"
fill="#000000" stroke="none">
<path d="M0 350 l0 -350 350 0 350 0 0 350 0 350 -350 0 -350 0 0 -350z m297
190 c5 -17 14 -20 67 -20 33 0 67 -4 75 -9 21 -13 5 -41 -23 -41 -20 0 -29 -9
-45 -42 -11 -24 -28 -55 -37 -70 -18 -27 -18 -28 5 -52 16 -17 21 -31 16 -46
-7 -21 -8 -21 -41 11 l-34 33 -53 -52 c-46 -46 -55 -51 -66 -38 -11 13 -5 24
38 69 l50 53 -25 36 c-25 35 -25 58 -1 58 7 0 21 -13 30 -30 10 -16 22 -30 27
-30 12 0 60 70 60 87 0 10 -28 13 -110 13 -92 0 -112 3 -117 16 -9 24 15 34
83 34 53 0 62 3 67 20 3 11 10 20 17 20 7 0 14 -9 17 -20z m180 -158 c17 -11
96 -220 89 -237 -9 -25 -26 -17 -42 20 -14 33 -17 35 -64 35 -44 0 -50 -3 -56
-25 -8 -32 -31 -52 -45 -38 -7 7 3 45 31 118 49 132 58 145 87 127z"/>
<path d="M446 295 c-22 -52 -21 -55 19 -55 l35 0 -17 43 c-9 23 -18 44 -19 46
-2 2 -10 -14 -18 -34z"/>
</g>
</svg>
