<svg xmlns="http://www.w3.org/2000/svg">
	<symbol id="play" viewBox="0 0 24 24">
		<path d="M18.3281 12C18.3281 10.3359 17.311 8.91094 15.8672 8.31094L15.0985 10.1578C15.8203 10.4578 16.3266 11.1703 16.3266 12.0047C16.3266 12.8344 15.8203 13.5469 15.0985 13.8516L15.8672 15.6984C17.311 15.0891 18.3281 13.6641 18.3281 12ZM17.4047 4.61719L16.636 6.46406C18.8063 7.36875 20.3297 9.50625 20.3297 12C20.3297 14.4984 18.8063 16.6313 16.636 17.5359L17.4047 19.3828C20.2969 18.1781 22.3266 15.3281 22.3266 12C22.3266 8.67188 20.2969 5.82188 17.4047 4.61719ZM2.32971 6.99844V16.9969H6.32815L13.3266 24V0L6.32815 6.99844H2.32971Z"/>
	</symbol>

	<symbol id="logo" viewBox="0 0 35 35">
		<path d="M19.4688 32.0833C18.8854 32.0833 18.4664 31.8952 18.2117 31.5189C17.956 31.1417 17.9254 30.6736 18.1198 30.1146L23.4427 16.0052C23.5886 15.6163 23.8622 15.2819 24.2638 15.0019C24.6643 14.7228 25.0833 14.5833 25.5208 14.5833C25.934 14.5833 26.3472 14.7228 26.7604 15.0019C27.1736 15.2819 27.4531 15.6163 27.599 16.0052L32.9219 30.1146C33.1163 30.6736 33.0862 31.1417 32.8315 31.5189C32.5758 31.8952 32.1441 32.0833 31.5365 32.0833C31.2691 32.0833 31.0261 31.9983 30.8073 31.8281C30.5886 31.658 30.4306 31.4514 30.3333 31.2083L29.0938 27.6354H22.0208L20.7448 31.2083C20.6476 31.4514 20.4774 31.658 20.2344 31.8281C19.9913 31.9983 19.7361 32.0833 19.4688 32.0833ZM22.8958 25.0833H28.1458L25.5938 17.8646H25.4479L22.8958 25.0833ZM10.4271 12.4687C10.816 13.1736 11.2292 13.8235 11.6667 14.4185C12.1042 15.0145 12.6146 15.6285 13.1979 16.2604C14.2674 15.0937 15.1545 13.8969 15.8594 12.67C16.5642 11.4421 17.1597 10.1354 17.6458 8.74999H2.91668C2.50348 8.74999 2.15737 8.61048 1.87834 8.33145C1.59834 8.05145 1.45834 7.70485 1.45834 7.29166C1.45834 6.87846 1.59834 6.53186 1.87834 6.25186C2.15737 5.97284 2.50348 5.83332 2.91668 5.83332H11.6667V4.37499C11.6667 3.9618 11.8067 3.6152 12.0867 3.3352C12.3657 3.05617 12.7118 2.91666 13.125 2.91666C13.5382 2.91666 13.8848 3.05617 14.1648 3.3352C14.4438 3.6152 14.5833 3.9618 14.5833 4.37499V5.83332H23.3333C23.7465 5.83332 24.0926 5.97284 24.3717 6.25186C24.6517 6.53186 24.7917 6.87846 24.7917 7.29166C24.7917 7.70485 24.6517 8.05145 24.3717 8.33145C24.0926 8.61048 23.7465 8.74999 23.3333 8.74999H20.5625C20.0521 10.4757 19.3594 12.1528 18.4844 13.7812C17.6094 15.4097 16.5278 16.941 15.2396 18.375L18.7396 21.9479L17.6458 24.9375L13.125 20.4167L6.85418 26.6875C6.58682 26.9548 6.24654 27.0885 5.83334 27.0885C5.42015 27.0885 5.07987 26.9548 4.81251 26.6875C4.54515 26.4201 4.41147 26.0799 4.41147 25.6667C4.41147 25.2535 4.54515 24.9132 4.81251 24.6458L11.1563 18.3021C10.5 17.5486 9.89237 16.7888 9.33334 16.0227C8.77432 15.2576 8.27605 14.4496 7.83855 13.5989C7.57119 13.0885 7.55904 12.6389 7.80209 12.25C8.04515 11.8611 8.4705 11.6667 9.07814 11.6667C9.32119 11.6667 9.5764 11.7454 9.84376 11.9029C10.1111 12.0614 10.3056 12.25 10.4271 12.4687Z"/>
	</symbol>

	<symbol id="account" viewBox="0 0 24 24">
		<path d="M12 2C6.48 2 2 6.48 2 12C2 17.52 6.48 22 12 22C17.52 22 22 17.52 22 12C22 6.48 17.52 2 12 2ZM12 6C13.93 6 15.5 7.57 15.5 9.5C15.5 11.43 13.93 13 12 13C10.07 13 8.5 11.43 8.5 9.5C8.5 7.57 10.07 6 12 6ZM12 20C9.97 20 7.57 19.18 5.86 17.12C7.6116 15.7457 9.77362 14.9988 12 14.9988C14.2264 14.9988 16.3884 15.7457 18.14 17.12C16.43 19.18 14.03 20 12 20Z"/>
	</symbol>

	<symbol id="go" viewBox="0 0 24 24">
		<path d="M12 2.25C10.0716 2.25 8.18657 2.82183 6.58319 3.89317C4.97982 4.96452 3.73013 6.48726 2.99218 8.26884C2.25422 10.0504 2.06114 12.0108 2.43735 13.9021C2.81355 15.7934 3.74215 17.5307 5.10571 18.8943C6.46928 20.2579 8.20656 21.1865 10.0979 21.5627C11.9892 21.9389 13.9496 21.7458 15.7312 21.0078C17.5127 20.2699 19.0355 19.0202 20.1068 17.4168C21.1782 15.8134 21.75 13.9284 21.75 12C21.745 9.41566 20.7162 6.93859 18.8888 5.11118C17.0614 3.28378 14.5843 2.25496 12 2.25ZM16.4438 12.2906C16.4029 12.3815 16.3457 12.4641 16.275 12.5344L13.0969 15.7125C13.0288 15.7825 12.9471 15.8378 12.8568 15.8748C12.7665 15.9119 12.6695 15.9301 12.5719 15.9281C12.4728 15.9303 12.3744 15.9122 12.2826 15.8752C12.1907 15.8381 12.1073 15.7828 12.0375 15.7125C11.8972 15.5719 11.8185 15.3814 11.8185 15.1828C11.8185 14.9842 11.8972 14.7937 12.0375 14.6531L13.9406 12.75H8.25C8.05109 12.75 7.86033 12.671 7.71967 12.5303C7.57902 12.3897 7.5 12.1989 7.5 12C7.5 11.8011 7.57902 11.6103 7.71967 11.4697C7.86033 11.329 8.05109 11.25 8.25 11.25H13.9406L12.0375 9.34687C11.9082 9.20421 11.8388 9.01729 11.8435 8.82483C11.8483 8.63236 11.9268 8.44909 12.063 8.31296C12.1991 8.17682 12.3824 8.09825 12.5748 8.09351C12.7673 8.08877 12.9542 8.15823 13.0969 8.2875L16.275 11.4656C16.3457 11.5359 16.4029 11.6185 16.4438 11.7094C16.5188 11.8959 16.5188 12.1041 16.4438 12.2906Z"/>
	</symbol>

	<symbol id="add" viewBox="0 0 24 24">
		<path d="M12 17C12.2833 17 12.521 16.904 12.713 16.712C12.9043 16.5207 13 16.2833 13 16V13H16.025C16.3083 13 16.5417 12.904 16.725 12.712C16.9083 12.5207 17 12.2833 17 12C17 11.7167 16.904 11.479 16.712 11.287C16.5207 11.0957 16.2833 11 16 11H13V7.975C13 7.69167 12.9043 7.45833 12.713 7.275C12.521 7.09167 12.2833 7 12 7C11.7167 7 11.4793 7.09567 11.288 7.287C11.096 7.479 11 7.71667 11 8V11H7.975C7.69167 11 7.45833 11.0957 7.275 11.287C7.09167 11.479 7 11.7167 7 12C7 12.2833 7.09567 12.5207 7.287 12.712C7.479 12.904 7.71667 13 8 13H11V16.025C11 16.3083 11.096 16.5417 11.288 16.725C11.4793 16.9083 11.7167 17 12 17ZM12 22C10.6167 22 9.31667 21.7373 8.1 21.212C6.88333 20.6873 5.825 19.975 4.925 19.075C4.025 18.175 3.31267 17.1167 2.788 15.9C2.26267 14.6833 2 13.3833 2 12C2 10.6167 2.26267 9.31667 2.788 8.1C3.31267 6.88333 4.025 5.825 4.925 4.925C5.825 4.025 6.88333 3.31233 8.1 2.787C9.31667 2.26233 10.6167 2 12 2C13.3833 2 14.6833 2.26233 15.9 2.787C17.1167 3.31233 18.175 4.025 19.075 4.925C19.975 5.825 20.6873 6.88333 21.212 8.1C21.7373 9.31667 22 10.6167 22 12C22 13.3833 21.7373 14.6833 21.212 15.9C20.6873 17.1167 19.975 18.175 19.075 19.075C18.175 19.975 17.1167 20.6873 15.9 21.212C14.6833 21.7373 13.3833 22 12 22Z"/>
	</symbol>

	<symbol id="remove" viewBox="0 0 24 24">
		<path d="M12 2C17.53 2 22 6.47 22 12C22 17.53 17.53 22 12 22C6.47 22 2 17.53 2 12C2 6.47 6.47 2 12 2ZM15.59 7L12 10.59L8.41 7L7 8.41L10.59 12L7 15.59L8.41 17L12 13.41L15.59 17L17 15.59L13.41 12L17 8.41L15.59 7Z"/>
	</symbol>

	<symbol id="trashbin" viewBox="0 0 24 24">
		<path d="M9.4 16.5L12 13.9L14.6 16.5L16 15.1L13.4 12.5L16 9.9L14.6 8.5L12 11.1L9.4 8.5L8 9.9L10.6 12.5L8 15.1L9.4 16.5ZM7 21C6.45 21 5.97933 20.8043 5.588 20.413C5.196 20.021 5 19.55 5 19V6H4V4H9V3H15V4H20V6H19V19C19 19.55 18.8043 20.021 18.413 20.413C18.021 20.8043 17.55 21 17 21H7Z"/>
	</symbol>

	<symbol id="hide" viewBox="0 0 24 24">
		<path d="M11.83 9L15 12.16V12C15 11.2044 14.6839 10.4413 14.1213 9.87868C13.5587 9.31607 12.7956 9 12 9H11.83ZM7.53 9.8L9.08 11.35C9.03 11.56 9 11.77 9 12C9 12.7956 9.31607 13.5587 9.87868 14.1213C10.4413 14.6839 11.2044 15 12 15C12.22 15 12.44 14.97 12.65 14.92L14.2 16.47C13.53 16.8 12.79 17 12 17C10.6739 17 9.40215 16.4732 8.46447 15.5355C7.52678 14.5979 7 13.3261 7 12C7 11.21 7.2 10.47 7.53 9.8ZM2 4.27L4.28 6.55L4.73 7C3.08 8.3 1.78 10 1 12C2.73 16.39 7 19.5 12 19.5C13.55 19.5 15.03 19.2 16.38 18.66L16.81 19.08L19.73 22L21 20.73L3.27 3M12 7C13.3261 7 14.5979 7.52678 15.5355 8.46447C16.4732 9.40215 17 10.6739 17 12C17 12.64 16.87 13.26 16.64 13.82L19.57 16.75C21.07 15.5 22.27 13.86 23 12C21.27 7.61 17 4.5 12 4.5C10.6 4.5 9.26 4.75 8 5.2L10.17 7.35C10.74 7.13 11.35 7 12 7Z"/>
	</symbol>

	<symbol id="return" viewBox="0 0 30 30">
		<path d="M23.75 13.75H9.78753L15.8875 7.65002C16.375 7.16252 16.375 6.36252 15.8875 5.87502C15.7719 5.75914 15.6345 5.6672 15.4833 5.60447C15.3321 5.54175 15.17 5.50946 15.0063 5.50946C14.8426 5.50946 14.6805 5.54175 14.5292 5.60447C14.378 5.6672 14.2407 5.75914 14.125 5.87502L5.88753 14.1125C5.77165 14.2282 5.67971 14.3655 5.61699 14.5167C5.55426 14.668 5.52197 14.8301 5.52197 14.9938C5.52197 15.1575 5.55426 15.3196 5.61699 15.4708C5.67971 15.622 5.77165 15.7594 5.88753 15.875L14.125 24.1125C14.2408 24.2282 14.3781 24.32 14.5293 24.3827C14.6806 24.4453 14.8426 24.4775 15.0063 24.4775C15.1699 24.4775 15.332 24.4453 15.4832 24.3827C15.6344 24.32 15.7718 24.2282 15.8875 24.1125C16.0033 23.9968 16.0951 23.8594 16.1577 23.7082C16.2203 23.557 16.2526 23.3949 16.2526 23.2313C16.2526 23.0676 16.2203 22.9055 16.1577 22.7543C16.0951 22.6031 16.0033 22.4657 15.8875 22.35L9.78753 16.25H23.75C24.4375 16.25 25 15.6875 25 15C25 14.3125 24.4375 13.75 23.75 13.75Z"/>
	</symbol>

	<symbol id="settings" viewBox="0 0 30 30">
		<path d="M6.25 26.25C5.5625 26.25 4.97375 26.0054 4.48375 25.5163C3.99458 25.0263 3.75 24.4375 3.75 23.75V6.25C3.75 5.5625 3.99458 4.97375 4.48375 4.48375C4.97375 3.99458 5.5625 3.75 6.25 3.75H23.75C24.4375 3.75 25.0263 3.99458 25.5163 4.48375C26.0054 4.97375 26.25 5.5625 26.25 6.25V23.75C26.25 24.4375 26.0054 25.0263 25.5163 25.5163C25.0263 26.0054 24.4375 26.25 23.75 26.25H6.25ZM14.25 21.25H15.75C15.8958 21.25 16.0208 21.2029 16.125 21.1087C16.2292 21.0154 16.3021 20.8958 16.3437 20.75L16.625 19.375C16.875 19.2708 17.1096 19.1617 17.3287 19.0475C17.5471 18.9325 17.7708 18.7917 18 18.625L19.3438 19.0313C19.4896 19.0729 19.625 19.0679 19.75 19.0163C19.875 18.9638 19.9792 18.875 20.0625 18.75L20.8125 17.5C20.8958 17.375 20.9217 17.2396 20.89 17.0938C20.8592 16.9479 20.7812 16.8229 20.6562 16.7188L19.625 15.8125C19.6667 15.5208 19.6875 15.25 19.6875 15C19.6875 14.75 19.6667 14.4792 19.625 14.1875L20.6562 13.2812C20.7812 13.1771 20.8592 13.0521 20.89 12.9062C20.9217 12.7604 20.8958 12.625 20.8125 12.5L20.0625 11.25C19.9792 11.125 19.875 11.0362 19.75 10.9837C19.625 10.9321 19.4896 10.9271 19.3438 10.9687L18 11.375C17.7708 11.2083 17.5471 11.0675 17.3287 10.9525C17.1096 10.8383 16.875 10.7292 16.625 10.625L16.3437 9.25C16.3021 9.10417 16.2292 8.98417 16.125 8.89C16.0208 8.79667 15.8958 8.75 15.75 8.75H14.25C14.1042 8.75 13.9792 8.79667 13.875 8.89C13.7708 8.98417 13.6979 9.10417 13.6563 9.25L13.375 10.625C13.125 10.7292 12.8904 10.8383 12.6713 10.9525C12.4529 11.0675 12.2292 11.2083 12 11.375L10.6562 10.9687C10.5104 10.9271 10.375 10.9321 10.25 10.9837C10.125 11.0362 10.0208 11.125 9.9375 11.25L9.1875 12.5C9.10417 12.625 9.07792 12.7604 9.10875 12.9062C9.14042 13.0521 9.21875 13.1771 9.34375 13.2812L10.375 14.1875C10.3333 14.4792 10.3125 14.75 10.3125 15C10.3125 15.25 10.3333 15.5208 10.375 15.8125L9.34375 16.7188C9.21875 16.8229 9.14042 16.9479 9.10875 17.0938C9.07792 17.2396 9.10417 17.375 9.1875 17.5L9.9375 18.75C10.0208 18.875 10.125 18.9638 10.25 19.0163C10.375 19.0679 10.5104 19.0729 10.6562 19.0313L12 18.625C12.2292 18.7917 12.4529 18.9325 12.6713 19.0475C12.8904 19.1617 13.125 19.2708 13.375 19.375L13.6563 20.75C13.6979 20.8958 13.7708 21.0154 13.875 21.1087C13.9792 21.2029 14.1042 21.25 14.25 21.25ZM15 17.5C14.3125 17.5 13.7242 17.255 13.235 16.765C12.745 16.2758 12.5 15.6875 12.5 15C12.5 14.3125 12.745 13.7237 13.235 13.2337C13.7242 12.7446 14.3125 12.5 15 12.5C15.6875 12.5 16.2763 12.7446 16.7663 13.2337C17.2554 13.7237 17.5 14.3125 17.5 15C17.5 15.6875 17.2554 16.2758 16.7663 16.765C16.2763 17.255 15.6875 17.5 15 17.5Z"/>
	</symbol>

	<symbol id="" viewBox="0 0 24 24">

	</symbol>
</svg>